# xmcd
#
# Track frame offsets:
#	150
#	13954
#	28610
#	37392
#	64834
#	79848
#	91738
#	111080
#
# Disc length: 1676 seconds
#
# Revision: 1
# Processed by: cddbd v1.5.1PL0 Copyright (c) Steve Scherf et al.
# Submitted via: EasyCDDAExtractor 5.1.0
#
DISCID=65068a08
DTITLE=Modern Rhythm
DYEAR=2001
DGENRE=Blues
TTITLE0=Uranium Rock
TTITLE1=T-Bone Boogie
TTITLE2=Lost Woman Blues
TTITLE3=Have You Ever Loved A Woman
TTITLE4=Trouble
TTITLE5=Vasco
TTITLE6=Just Like A Woman
TTITLE7=Fried Chicken
EXTD=
EXTT0=
EXTT1=
EXTT2=
EXTT3=
EXTT4=
EXTT5=
EXTT6=
EXTT7=
PLAYORDER=
